<?xml version="1.0" encoding="UTF-8"?>
<svg xmlns="http://www.w3.org/2000/svg" viewBox="0 0 811 162" width="811" height="162" role="img" aria-label="gialoop logo">
  <title>gialoop logo</title>
  <path fill="#f5f5f5" fill-rule="evenodd" d="M 54 161 L 8 161 L 8 160 L 6 160 L 6 147 L 8 147 L 8 146 L 56 146 L 56 145 L 61 144 L 64 141 L 64 137 L 65 137 L 64 136 L 64 121 L 59 122 L 59 123 L 43 123 L 43 124 L 16 123 L 16 122 L 13 122 L 13 121 L 9 120 L 3 114 L 2 109 L 1 109 L 1 104 L 0 104 L 0 55 L 1 55 L 2 47 L 5 44 L 5 42 L 7 40 L 9 40 L 10 38 L 14 37 L 14 36 L 18 36 L 18 35 L 58 35 L 58 36 L 62 37 L 63 39 L 65 39 L 66 35 L 76 35 L 78 37 L 78 39 L 79 39 L 79 146 L 78 146 L 77 151 L 70 158 L 68 158 L 66 160 L 62 160 L 62 161 Z M 174 53 L 174 110 L 201 110 L 203 112 L 203 124 L 202 125 L 131 125 L 130 124 L 130 112 L 131 111 L 133 111 L 133 110 L 158 110 L 158 99 L 159 99 L 159 90 L 158 90 L 158 57 L 159 57 L 159 53 L 158 53 L 158 51 L 131 51 L 130 50 L 130 38 L 133 37 L 133 36 L 172 36 L 174 38 Z M 392 110 L 400 110 L 400 16 L 375 16 L 373 14 L 373 2 L 374 1 L 413 1 L 415 3 L 415 110 L 442 110 L 444 112 L 444 124 L 443 125 L 372 125 L 371 124 L 371 112 L 372 111 L 374 111 L 374 110 Z M 732 128 L 732 44 L 733 44 L 733 40 L 737 36 L 746 36 L 746 39 L 749 39 L 750 37 L 754 37 L 754 36 L 795 36 L 795 37 L 798 37 L 798 38 L 802 39 L 807 44 L 807 46 L 809 47 L 810 54 L 811 54 L 811 106 L 810 106 L 810 111 L 809 111 L 809 114 L 807 115 L 807 117 L 803 121 L 801 121 L 800 123 L 797 123 L 797 124 L 794 124 L 794 125 L 753 125 L 753 124 L 747 122 L 747 159 L 745 161 L 733 161 L 732 160 Z M 327 81 L 327 108 L 326 108 L 326 113 L 325 113 L 324 117 L 319 122 L 317 122 L 317 123 L 315 123 L 313 125 L 309 125 L 309 126 L 262 126 L 262 125 L 257 125 L 257 124 L 253 123 L 252 121 L 250 121 L 247 118 L 246 114 L 245 114 L 245 111 L 244 111 L 244 87 L 245 87 L 245 84 L 246 84 L 247 80 L 251 76 L 253 76 L 255 74 L 258 74 L 258 73 L 261 73 L 261 72 L 305 72 L 305 73 L 308 73 L 310 75 L 312 74 L 312 58 L 311 58 L 310 54 L 308 54 L 307 52 L 303 52 L 303 51 L 254 51 L 253 50 L 253 39 L 256 36 L 309 36 L 309 37 L 316 38 L 317 40 L 319 40 L 323 44 L 323 46 L 324 46 L 324 48 L 326 50 L 326 55 L 327 55 Z M 64 102 L 63 102 L 63 104 L 60 107 L 58 107 L 58 108 L 51 108 L 51 109 L 21 108 L 21 107 L 19 107 L 17 105 L 17 102 L 16 102 L 16 56 L 18 55 L 18 53 L 20 53 L 21 51 L 25 51 L 25 50 L 55 50 L 55 51 L 60 52 L 64 56 L 64 58 Z M 748 103 L 747 103 L 747 58 L 748 58 L 748 56 L 752 52 L 755 52 L 755 51 L 789 51 L 789 52 L 791 52 L 794 55 L 795 61 L 796 61 L 796 68 L 795 68 L 796 75 L 795 75 L 795 94 L 796 94 L 796 102 L 794 104 L 794 106 L 791 109 L 788 109 L 788 110 L 754 110 L 751 107 L 749 107 Z M 159 18 L 158 18 L 158 14 L 159 14 L 158 5 L 159 5 L 159 3 L 173 3 L 174 4 L 174 19 L 172 21 L 160 21 Z M 305 87 L 305 88 L 307 88 L 311 92 L 311 95 L 312 95 L 312 104 L 309 107 L 309 109 L 304 110 L 304 111 L 266 111 L 266 110 L 263 110 L 260 107 L 260 105 L 259 105 L 259 93 L 260 93 L 260 91 L 263 88 L 265 88 L 265 87 L 283 87 Z M 375 112 L 374 112 L 374 111 L 375 111 Z M 372 112 L 373 112 L 373 113 L 372 113 Z M 131 50 L 131 49 L 132 49 L 132 50 Z M 131 112 L 132 112 L 132 113 L 131 113 Z"/>
  <path fill="#f4c400" fill-rule="evenodd" d="M 697 81 L 697 102 L 696 102 L 696 106 L 695 106 L 695 109 L 693 110 L 692 114 L 685 121 L 683 121 L 683 122 L 681 122 L 679 124 L 676 124 L 676 125 L 629 125 L 629 126 L 617 125 L 617 124 L 613 124 L 611 122 L 608 122 L 608 121 L 604 120 L 603 118 L 598 116 L 591 109 L 591 107 L 589 107 L 589 105 L 586 103 L 586 101 L 584 100 L 584 98 L 581 96 L 580 92 L 578 91 L 577 87 L 573 83 L 572 79 L 568 75 L 568 73 L 565 70 L 565 68 L 552 55 L 550 55 L 548 53 L 545 53 L 545 52 L 540 52 L 540 51 L 504 51 L 504 52 L 500 52 L 500 53 L 498 53 L 497 55 L 494 56 L 494 58 L 493 58 L 493 60 L 491 62 L 491 68 L 490 68 L 490 95 L 491 95 L 491 100 L 492 100 L 493 104 L 497 108 L 503 109 L 503 110 L 539 110 L 539 109 L 547 108 L 547 107 L 553 105 L 557 100 L 560 100 L 560 102 L 565 107 L 565 109 L 568 111 L 568 113 L 566 115 L 564 115 L 562 118 L 560 118 L 560 119 L 558 119 L 558 120 L 556 120 L 556 121 L 554 121 L 552 123 L 546 124 L 546 125 L 535 125 L 535 126 L 497 125 L 497 124 L 493 124 L 493 123 L 489 122 L 488 120 L 486 120 L 480 114 L 480 112 L 479 112 L 479 110 L 478 110 L 478 108 L 476 106 L 476 100 L 475 100 L 475 62 L 476 62 L 476 56 L 478 54 L 478 51 L 480 50 L 480 48 L 482 47 L 482 45 L 485 42 L 487 42 L 488 40 L 490 40 L 490 39 L 492 39 L 494 37 L 501 36 L 501 35 L 542 35 L 542 36 L 548 36 L 548 37 L 554 38 L 554 39 L 562 42 L 564 45 L 566 45 L 572 51 L 572 53 L 578 59 L 578 61 L 580 62 L 581 66 L 583 67 L 583 69 L 587 73 L 588 77 L 590 78 L 591 82 L 593 83 L 593 85 L 595 86 L 595 88 L 597 89 L 599 94 L 610 105 L 612 105 L 612 106 L 614 106 L 616 108 L 619 108 L 619 109 L 624 109 L 624 110 L 670 110 L 670 109 L 675 108 L 679 104 L 679 102 L 681 100 L 681 94 L 682 94 L 682 69 L 681 69 L 681 62 L 680 62 L 680 59 L 678 58 L 678 56 L 675 53 L 672 53 L 672 52 L 669 52 L 669 51 L 630 51 L 630 52 L 622 53 L 622 54 L 614 57 L 609 62 L 606 62 L 605 59 L 598 52 L 598 49 L 600 49 L 602 46 L 604 46 L 605 44 L 607 44 L 608 42 L 610 42 L 610 41 L 612 41 L 612 40 L 614 40 L 616 38 L 623 37 L 623 36 L 629 36 L 629 35 L 671 35 L 671 36 L 676 36 L 676 37 L 679 37 L 679 38 L 685 40 L 691 46 L 691 48 L 693 49 L 693 51 L 695 53 L 695 56 L 696 56 L 696 60 L 697 60 Z"/>
</svg>
