<?xml version="1.0" encoding="UTF-8"?>
<svg xmlns="http://www.w3.org/2000/svg" viewBox="475 35 222 91" width="222" height="91" role="img" aria-label="gialoop loop symbol">
  <title>gialoop loop symbol</title>
  <path fill="#f4c400" fill-rule="evenodd" d="M 697 81 L 697 102 L 696 102 L 696 106 L 695 106 L 695 109 L 693 110 L 692 114 L 685 121 L 683 121 L 683 122 L 681 122 L 679 124 L 676 124 L 676 125 L 629 125 L 629 126 L 617 125 L 617 124 L 613 124 L 611 122 L 608 122 L 608 121 L 604 120 L 603 118 L 598 116 L 591 109 L 591 107 L 589 107 L 589 105 L 586 103 L 586 101 L 584 100 L 584 98 L 581 96 L 580 92 L 578 91 L 577 87 L 573 83 L 572 79 L 568 75 L 568 73 L 565 70 L 565 68 L 552 55 L 550 55 L 548 53 L 545 53 L 545 52 L 540 52 L 540 51 L 504 51 L 504 52 L 500 52 L 500 53 L 498 53 L 497 55 L 494 56 L 494 58 L 493 58 L 493 60 L 491 62 L 491 68 L 490 68 L 490 95 L 491 95 L 491 100 L 492 100 L 493 104 L 497 108 L 503 109 L 503 110 L 539 110 L 539 109 L 547 108 L 547 107 L 553 105 L 557 100 L 560 100 L 560 102 L 565 107 L 565 109 L 568 111 L 568 113 L 566 115 L 564 115 L 562 118 L 560 118 L 560 119 L 558 119 L 558 120 L 556 120 L 556 121 L 554 121 L 552 123 L 546 124 L 546 125 L 535 125 L 535 126 L 497 125 L 497 124 L 493 124 L 493 123 L 489 122 L 488 120 L 486 120 L 480 114 L 480 112 L 479 112 L 479 110 L 478 110 L 478 108 L 476 106 L 476 100 L 475 100 L 475 62 L 476 62 L 476 56 L 478 54 L 478 51 L 480 50 L 480 48 L 482 47 L 482 45 L 485 42 L 487 42 L 488 40 L 490 40 L 490 39 L 492 39 L 494 37 L 501 36 L 501 35 L 542 35 L 542 36 L 548 36 L 548 37 L 554 38 L 554 39 L 562 42 L 564 45 L 566 45 L 572 51 L 572 53 L 578 59 L 578 61 L 580 62 L 581 66 L 583 67 L 583 69 L 587 73 L 588 77 L 590 78 L 591 82 L 593 83 L 593 85 L 595 86 L 595 88 L 597 89 L 599 94 L 610 105 L 612 105 L 612 106 L 614 106 L 616 108 L 619 108 L 619 109 L 624 109 L 624 110 L 670 110 L 670 109 L 675 108 L 679 104 L 679 102 L 681 100 L 681 94 L 682 94 L 682 69 L 681 69 L 681 62 L 680 62 L 680 59 L 678 58 L 678 56 L 675 53 L 672 53 L 672 52 L 669 52 L 669 51 L 630 51 L 630 52 L 622 53 L 622 54 L 614 57 L 609 62 L 606 62 L 605 59 L 598 52 L 598 49 L 600 49 L 602 46 L 604 46 L 605 44 L 607 44 L 608 42 L 610 42 L 610 41 L 612 41 L 612 40 L 614 40 L 616 38 L 623 37 L 623 36 L 629 36 L 629 35 L 671 35 L 671 36 L 676 36 L 676 37 L 679 37 L 679 38 L 685 40 L 691 46 L 691 48 L 693 49 L 693 51 L 695 53 L 695 56 L 696 56 L 696 60 L 697 60 Z"/>
</svg>
